<?xml version="1.0" encoding="UTF-8"?>
<svg id="Layer_1" data-name="Layer 1" xmlns="http://www.w3.org/2000/svg" viewBox="0 0 42 50">
  <defs>
    <style>
      .cls-1 {
        fill: none;
        stroke: #000;
        stroke-miterlimit: 10;
      }

      .cls-2 {
        font-family: InterVariable-Medium, 'Inter Variable';
        font-size: 12px;
        font-variation-settings: 'opsz' 14, 'wght' 500;
        font-weight: 500;
      }

      .cls-3 {
        letter-spacing: 0em;
      }
    </style>
  </defs>
  <path d="M21,0c-2.2,0-4,1.8-4,4,0,.52.1,1.02.28,1.47-5.62,1.46-9.28,6.35-9.28,12.53,0,7.83-1.92,11.4-3.75,13.41-.91,1-1.82,1.61-2.59,2.19-.39.29-.75.57-1.06.94s-.59.89-.59,1.47c0,1.38.84,2.54,2.03,3.31s2.75,1.27,4.62,1.66c2.44.5,5.45.77,8.75.91-.25.66-.41,1.38-.41,2.12,0,3.3,2.7,6,6,6s6-2.7,6-6c0-.75-.15-1.46-.41-2.12,3.3-.14,6.31-.4,8.75-.91,1.88-.39,3.44-.89,4.62-1.66s2.03-1.94,2.03-3.31c0-.58-.28-1.1-.59-1.47s-.67-.65-1.06-.94c-.78-.57-1.68-1.18-2.59-2.19-1.83-2.01-3.75-5.57-3.75-13.41,0-6.18-3.66-11.06-9.28-12.53.18-.45.28-.95.28-1.47,0-2.2-1.8-4-4-4ZM21,2c1.12,0,2,.88,2,2s-.88,2-2,2-2-.88-2-2,.88-2,2-2ZM23.34,7.19c5.33.95,8.66,5.07,8.66,10.81,0,8.17,2.08,12.36,4.25,14.75,1.09,1.19,2.18,1.94,2.91,2.47.36.27.63.49.75.62s.09.12.09.16c0,.62-.29,1.08-1.12,1.62s-2.2,1.05-3.94,1.41c-3.48.72-8.45.97-13.94.97s-10.45-.25-13.94-.97c-1.74-.36-3.1-.86-3.94-1.41-.84-.54-1.12-1-1.12-1.62,0-.03-.03-.02.09-.16s.39-.36.75-.62c.72-.53,1.82-1.28,2.91-2.47,2.17-2.39,4.25-6.58,4.25-14.75,0-5.74,3.33-9.83,8.66-10.78.66.49,1.46.78,2.34.78s1.68-.32,2.34-.81ZM17.56,41.94c1.12.02,2.26.06,3.44.06s2.32-.04,3.44-.06c.36.6.56,1.31.56,2.06,0,2.22-1.78,4-4,4s-4-1.78-4-4c0-.76.2-1.46.56-2.06Z"/>
  <text class="cls-2" transform="translate(15.34 28.35)"><tspan class="cls-3" x="0" y="0">A</tspan><tspan x="8.56" y="0">i</tspan></text>
  <path class="cls-1" d="M13.35,4c-1.14.41-4.08,1.7-6.39,5.57-1.43,2.4-2.06,4.84-2.35,6.34"/>
  <path class="cls-1" d="M27.66,4c1.14.41,4.08,1.7,6.39,5.57,1.43,2.4,2.06,4.84,2.35,6.34"/>
</svg>